<svg width="30" height="28" viewBox="0 0 30 28" fill="none" xmlns="http://www.w3.org/2000/svg">
<path d="M5.75499 24.5828L7.95627 22.8534L7.97245 22.8412C8.43137 22.4806 8.66295 22.2987 8.92132 22.1691C9.15311 22.0528 9.40029 21.9681 9.65527 21.9167C9.94267 21.8588 10.242 21.8588 10.843 21.8588H23.3822C24.997 21.8588 25.8053 21.8588 26.4227 21.5499C26.9663 21.2779 27.4085 20.8434 27.6854 20.3096C28 19.7034 28 18.9105 28 17.3247V6.53477C28 4.94902 28 4.15496 27.6854 3.5487C27.4085 3.01489 26.9654 2.5812 26.4218 2.30921C25.8038 2 24.996 2 23.3781 2H6.6225C5.00457 2 4.19501 2 3.57704 2.30921C3.03346 2.5812 2.59184 3.01489 2.31487 3.5487C2 4.15556 2 4.95058 2 6.53943V22.8109C2 24.3225 2 25.0782 2.31555 25.4664C2.58998 25.8041 3.00596 26.0005 3.44586 26C3.95166 25.9995 4.55297 25.5271 5.75499 24.5828Z" stroke="white" stroke-width="3" stroke-linecap="round" stroke-linejoin="round"/>
</svg>
