<svg width="13" height="13" viewBox="0 0 13 13" fill="none" xmlns="http://www.w3.org/2000/svg">
<path d="M12.1667 6.33333H7.33333V1.5C7.33333 1.22386 7.10948 1 6.83333 1C6.55719 1 6.33333 1.22386 6.33333 1.5V6.33333H1.5C1.22386 6.33333 1 6.55719 1 6.83333C1 7.10948 1.22386 7.33333 1.5 7.33333H6.33333V12.1667C6.33333 12.4428 6.55719 12.6667 6.83333 12.6667C7.10948 12.6667 7.33333 12.4428 7.33333 12.1667V7.33333H12.1667C12.4428 7.33333 12.6667 7.10948 12.6667 6.83333C12.6667 6.55719 12.4428 6.33333 12.1667 6.33333Z" fill="black" stroke="black" stroke-width="0.5"/>
</svg>
