<svg width="17" height="18" viewBox="0 0 17 18" fill="none" xmlns="http://www.w3.org/2000/svg">
<path d="M1.12298 7.11716C0.8839 6.88531 1.01377 6.46616 1.33715 6.42595L5.91926 5.85602C6.05105 5.83963 6.16553 5.75284 6.22112 5.62646L8.15379 1.2326C8.29019 0.922507 8.71057 0.922447 8.84696 1.23254L10.7796 5.62636C10.8352 5.75275 10.949 5.83977 11.0808 5.85616L15.6631 6.42595C15.9865 6.46616 16.116 6.88543 15.8769 7.11729L12.4896 10.4028C12.3922 10.4973 12.3488 10.6379 12.3747 10.7744L13.2736 15.5204C13.3371 15.8553 12.9972 16.1148 12.713 15.948L8.68673 13.584C8.57092 13.516 8.43023 13.5164 8.31442 13.5843L4.2877 15.9474C4.00354 16.1142 3.663 15.8553 3.72646 15.5204L4.62558 10.7747C4.65145 10.6382 4.60818 10.4973 4.51074 10.4028L1.12298 7.11716Z" stroke="#CACACA" stroke-width="2" stroke-linecap="round" stroke-linejoin="round"/>
</svg>
