<svg width="20" height="14" viewBox="0 0 20 14" fill="none" xmlns="http://www.w3.org/2000/svg">
<path d="M18.5714 0H1.42857C1.04969 0 0.686328 0.1475 0.418419 0.41005C0.15051 0.672601 0 1.0287 0 1.4V3.5C0 3.8713 0.15051 4.2274 0.418419 4.48995C0.686328 4.7525 1.04969 4.9 1.42857 4.9V12.6C1.42857 12.9713 1.57908 13.3274 1.84699 13.5899C2.1149 13.8525 2.47826 14 2.85714 14H17.1429C17.5217 14 17.8851 13.8525 18.153 13.5899C18.4209 13.3274 18.5714 12.9713 18.5714 12.6V4.9C18.9503 4.9 19.3137 4.7525 19.5816 4.48995C19.8495 4.2274 20 3.8713 20 3.5V1.4C20 1.0287 19.8495 0.672601 19.5816 0.41005C19.3137 0.1475 18.9503 0 18.5714 0ZM12.1429 8.4H7.85714C7.6677 8.4 7.48602 8.32625 7.35207 8.19497C7.21811 8.0637 7.14286 7.88565 7.14286 7.7C7.14286 7.51435 7.21811 7.3363 7.35207 7.20502C7.48602 7.07375 7.6677 7 7.85714 7H12.1429C12.3323 7 12.514 7.07375 12.6479 7.20502C12.7819 7.3363 12.8571 7.51435 12.8571 7.7C12.8571 7.88565 12.7819 8.0637 12.6479 8.19497C12.514 8.32625 12.3323 8.4 12.1429 8.4ZM18.5714 3.5H1.42857V1.4H18.5714V3.5Z" fill="white"/>
</svg>
