<svg width="13" height="13" viewBox="0 0 13 13" fill="none" xmlns="http://www.w3.org/2000/svg">
<path d="M1 12H12M1 12V9.17696L6.5 3.53089M1 12L3.75 12L9.24999 6.35392M6.5 3.53089L8.47218 1.50631L8.47337 1.50511C8.74485 1.22642 8.88083 1.08683 9.03758 1.03454C9.17566 0.988486 9.32441 0.988486 9.46249 1.03454C9.61913 1.08679 9.75496 1.22622 10.0261 1.50452L11.2222 2.7324C11.4944 3.01189 11.6306 3.1517 11.6816 3.31285C11.7265 3.45459 11.7265 3.60728 11.6816 3.74903C11.6306 3.91006 11.4947 4.04966 11.2228 4.32875L11.2222 4.32935L9.24999 6.35392M6.5 3.53089L9.24999 6.35392" stroke="white" stroke-width="1.5" stroke-linecap="round" stroke-linejoin="round"/>
</svg>
