<svg width="13" height="16" viewBox="0 0 13 16" fill="none" xmlns="http://www.w3.org/2000/svg">
<path d="M6.54049 0.583252L5.45591 2.79992C4.68091 4.38353 3.64221 5.82378 2.38424 7.05909L2.24174 7.19367C1.43382 7.97802 0.972195 9.05229 0.959242 10.1783V10.3208C0.937843 12.5256 2.25172 14.5246 4.28424 15.3795L4.49008 15.4666C5.82314 16.0328 7.3291 16.0328 8.66216 15.4666H8.70966C10.7574 14.5769 12.0712 12.5453 12.0426 10.3128V6.877C11.3602 8.43542 10.1209 9.68317 8.56716 10.3762C8.56716 10.3762 8.56716 10.3762 8.51966 10.3762C8.47216 10.3762 7.91799 10.6058 7.68049 10.3762C7.46836 10.1615 7.44805 9.82296 7.63299 9.5845L7.68841 9.54492H7.72799C9.54547 8.16345 9.96919 5.60378 8.69383 3.71034C7.66466 2.14284 6.54049 0.583252 6.54049 0.583252Z" fill="#9B9B9B"/>
</svg>
