<svg width="13" height="13" viewBox="0 0 13 13" fill="none" xmlns="http://www.w3.org/2000/svg">
<path d="M6.5 4.01021C6.24536 4.03957 6.05319 4.25517 6.05319 4.51149C6.05319 4.76782 6.24536 4.98341 6.5 5.01277C6.63379 5.01463 6.76255 4.96184 6.85653 4.8666C6.95051 4.77137 7.00159 4.64192 6.99796 4.50817C6.99438 4.23465 6.77352 4.01379 6.5 4.01021Z" fill="white"/>
<path d="M6.5 5.92237C6.36739 5.92057 6.23968 5.97245 6.1459 6.06623C6.05212 6.16001 6.00024 6.28772 6.00204 6.42033V8.49183C6.00204 8.76684 6.22499 8.98979 6.5 8.98979C6.77501 8.98979 6.99796 8.76684 6.99796 8.49183V6.43361C7.00154 6.29925 6.95066 6.16916 6.85689 6.07288C6.76311 5.9766 6.6344 5.92232 6.5 5.92237Z" fill="white"/>
<path fill-rule="evenodd" clip-rule="evenodd" d="M6.5 0C2.91167 0.0036597 0.0036597 2.91167 0 6.5C0 10.0899 2.91015 13 6.5 13C10.0899 13 13 10.0899 13 6.5C12.9963 2.91167 10.0883 0.0036597 6.5 0ZM6.5 12.0041C3.46018 12.0041 0.995914 9.53982 0.995914 6.5C0.995914 3.46018 3.46018 0.995914 6.5 0.995914C9.53982 0.995914 12.0041 3.46018 12.0041 6.5C12.0004 9.53831 9.53831 12.0004 6.5 12.0041Z" fill="white"/>
</svg>
