<svg width="18" height="19" viewBox="0 0 18 19" fill="none" xmlns="http://www.w3.org/2000/svg">
<path d="M18 8.69637V17.4799C18 17.883 17.8419 18.2697 17.5606 18.5548C17.2793 18.8398 16.8978 19 16.5 19H12.75C12.3522 19 11.9706 18.8398 11.6893 18.5548C11.408 18.2697 11.25 17.883 11.25 17.4799V13.6795C11.25 13.478 11.171 13.2846 11.0303 13.1421C10.8897 12.9996 10.6989 12.9195 10.5 12.9195H7.49999C7.30108 12.9195 7.11031 12.9996 6.96966 13.1421C6.82901 13.2846 6.74999 13.478 6.74999 13.6795V17.4799C6.74999 17.883 6.59196 18.2697 6.31065 18.5548C6.02935 18.8398 5.64782 19 5.24999 19H1.5C1.10217 19 0.720643 18.8398 0.439339 18.5548C0.158035 18.2697 1.73323e-08 17.883 1.73323e-08 17.4799V8.69637C-3.15401e-05 8.48599 0.0430305 8.27789 0.126461 8.08524C0.209891 7.89259 0.331872 7.71958 0.484687 7.57718L7.98468 0.405969L7.99499 0.395518C8.27112 0.141023 8.63096 0 9.00421 0C9.37745 0 9.73729 0.141023 10.0134 0.395518C10.0166 0.399235 10.0201 0.402727 10.0237 0.405969L17.5237 7.57718C17.675 7.72034 17.7954 7.89367 17.8774 8.08629C17.9593 8.2789 18.0011 8.48662 18 8.69637Z" fill="white"/>
</svg>
