<svg width="14" height="12" viewBox="0 0 14 12" fill="none" xmlns="http://www.w3.org/2000/svg">
<path d="M13.7333 4.06667C13.6666 1.8 11.8666 0 9.59992 0C8.86658 0 7.73325 0.533333 7.26659 1.4C7.19992 1.6 6.93325 1.6 6.86659 1.4C6.33325 0.6 5.26659 0.0666667 4.46659 0.0666667C2.26659 0.0666667 0.399919 1.86667 0.333252 4.06667V4.2C0.333252 5.33333 0.799919 6.4 1.59992 7.2C1.59992 7.2 1.59992 7.2 1.59992 7.26667C1.66659 7.33333 4.86659 10.1333 6.33325 11.4C6.73325 11.7333 7.33325 11.7333 7.73325 11.4C9.19992 10.1333 12.3333 7.33333 12.4666 7.26667C12.4666 7.26667 12.4666 7.26667 12.4666 7.2C13.2666 6.46667 13.7333 5.4 13.7333 4.2V4.06667Z" fill="#9B9B9B"/>
</svg>
