<svg width="15" height="17" viewBox="0 0 15 17" fill="none" xmlns="http://www.w3.org/2000/svg">
<path d="M1 6H14M1 6V13.3335C1 14.2669 1 14.7334 1.17711 15.0899C1.33291 15.4035 1.58132 15.6587 1.88708 15.8185C2.23435 16 2.68918 16 3.59749 16H11.4025C12.3108 16 12.765 16 13.1123 15.8185C13.418 15.6587 13.6673 15.4035 13.8231 15.0899C14 14.7337 14 14.2679 14 13.3363V6M1 6V5.3335C1 4.40008 1 3.93302 1.17711 3.5765C1.33291 3.26289 1.58132 3.00811 1.88708 2.84832C2.23469 2.66667 2.69007 2.66667 3.60016 2.66667H4.25M14 6V5.33076C14 4.39916 14 3.93267 13.8231 3.5765C13.6673 3.26289 13.418 3.00811 13.1123 2.84832C12.7647 2.66667 12.3102 2.66667 11.4002 2.66667H10.75M4.25 2.66667H10.75M4.25 2.66667V1M10.75 2.66667V1M9.53125 11H5.46875" stroke="#CACACA" stroke-width="2" stroke-linecap="round" stroke-linejoin="round"/>
</svg>
