<svg width="21" height="18" viewBox="0 0 21 18" fill="none" xmlns="http://www.w3.org/2000/svg">
<path d="M18.1033 4.4081V4.04076C18.1023 3.24477 17.8697 2.4668 17.4345 1.80447C16.9993 1.14214 16.381 0.624958 15.6572 0.317821C14.9334 0.0106835 14.1362 -0.0727249 13.3659 0.0780624C12.5955 0.22885 11.8861 0.607115 11.3269 1.16539C11.2938 1.19922 11.2676 1.23936 11.2499 1.28349C11.2322 1.32763 11.2233 1.37488 11.2237 1.42253V9.57017C11.2238 9.6364 11.2417 9.70135 11.2752 9.75814C11.3088 9.81494 11.3569 9.86147 11.4144 9.89281C11.4719 9.92414 11.5367 9.93912 11.6019 9.93616C11.6672 9.9332 11.7304 9.9124 11.7849 9.87598C12.4735 9.42804 13.2734 9.1879 14.0914 9.18354C14.2807 9.17997 14.4642 9.25014 14.6041 9.37962C14.7441 9.50909 14.8298 9.68804 14.8436 9.87965C14.8488 9.97933 14.8339 10.079 14.7998 10.1727C14.7657 10.2663 14.7132 10.3519 14.6454 10.4243C14.5777 10.4966 14.4961 10.5542 14.4057 10.5935C14.3152 10.6328 14.2178 10.653 14.1194 10.6529C13.3512 10.6529 12.6144 10.9625 12.0712 11.5136C11.5279 12.0648 11.2228 12.8122 11.2228 13.5916V16.703C11.2227 16.758 11.2348 16.8122 11.2581 16.8618C11.2815 16.9114 11.3155 16.9551 11.3576 16.9895C11.8715 17.421 12.4766 17.7264 13.1257 17.882C13.7749 18.0377 14.4507 18.0393 15.1006 17.8869C15.7504 17.7344 16.3569 17.4319 16.8728 17.003C17.3888 16.5741 17.8002 16.0302 18.0752 15.4137C18.1029 15.3517 18.1131 15.2831 18.1046 15.2155C18.0961 15.148 18.0693 15.0842 18.0271 15.0313C17.985 14.9783 17.9291 14.9383 17.8659 14.9156C17.8026 14.893 17.7344 14.8886 17.6688 14.903C17.2175 15.008 16.7559 15.061 16.2929 15.061H15.5931C15.4063 15.0633 15.2255 14.9939 15.087 14.8667C14.9485 14.7395 14.8625 14.5638 14.8463 14.375C14.8398 14.2745 14.8536 14.1737 14.8871 14.0789C14.9205 13.984 14.9728 13.8972 15.0407 13.8237C15.1086 13.7503 15.1907 13.6918 15.2818 13.6518C15.373 13.6119 15.4712 13.5914 15.5705 13.5916H16.2947C17.0513 13.5928 17.7968 13.4075 18.4672 13.0516C19.2611 12.6322 19.9206 11.9918 20.3685 11.2055C20.8163 10.4192 21.0339 9.5197 20.9957 8.61242C20.9575 7.70515 20.6651 6.82773 20.1528 6.08307C19.6405 5.3384 18.9296 4.75737 18.1033 4.4081ZM17.017 7.71417H16.655C15.7907 7.71417 14.9618 7.36585 14.3507 6.74585C13.7395 6.12584 13.3962 5.28492 13.3962 4.4081V4.04076C13.3962 3.84591 13.4725 3.65904 13.6083 3.52126C13.7441 3.38348 13.9283 3.30607 14.1204 3.30607C14.3124 3.30607 14.4966 3.38348 14.6324 3.52126C14.7682 3.65904 14.8445 3.84591 14.8445 4.04076V4.4081C14.8445 4.6493 14.8914 4.88814 14.9823 5.11098C15.0733 5.33382 15.2067 5.53629 15.3748 5.70685C15.7143 6.0513 16.1748 6.24481 16.655 6.24481H17.017C17.2091 6.24481 17.3933 6.32221 17.5291 6.45999C17.6649 6.59777 17.7412 6.78464 17.7412 6.97949C17.7412 7.17434 17.6649 7.36121 17.5291 7.49899C17.3933 7.63677 17.2091 7.71417 17.017 7.71417ZM6.87864 3.24715e-07C5.82267 0.00121564 4.81028 0.427327 4.0636 1.18485C3.31691 1.94238 2.89689 2.96945 2.8957 4.04076V4.4081C2.06953 4.75755 1.35871 5.33874 0.846581 6.08351C0.334453 6.82827 0.0422525 7.70574 0.0042462 8.61301C-0.03376 9.52028 0.184004 10.4197 0.632 11.2059C1.08 11.9921 1.73965 12.6323 2.53361 13.0516C3.20399 13.4075 3.94953 13.5928 4.70613 13.5916H5.40586C5.593 13.5888 5.77424 13.658 5.91313 13.7853C6.05201 13.9126 6.13824 14.0885 6.15447 14.2776C6.16105 14.3781 6.14719 14.4789 6.11375 14.5738C6.08031 14.6686 6.02801 14.7554 5.9601 14.8289C5.89219 14.9024 5.81011 14.9609 5.71897 15.0008C5.62783 15.0407 5.52957 15.0612 5.4303 15.061H4.70613C4.24273 15.0612 3.78081 15.0079 3.32929 14.9021C3.26377 14.8876 3.19556 14.8919 3.13227 14.9144C3.06899 14.9369 3.01311 14.9768 2.97087 15.0297C2.92863 15.0825 2.90169 15.1462 2.89305 15.2137C2.88442 15.2812 2.89442 15.3498 2.92195 15.4118C3.19689 16.0285 3.60832 16.5726 4.12424 17.0017C4.64016 17.4308 5.24668 17.7335 5.89665 17.8861C6.54662 18.0387 7.22253 18.0373 7.87184 17.8818C8.52115 17.7263 9.12637 17.4209 9.64045 16.9895C9.68262 16.9551 9.71664 16.9114 9.73998 16.8618C9.76332 16.8122 9.7754 16.758 9.77533 16.703V13.5916C9.77533 12.8122 9.47014 12.0648 8.92691 11.5136C8.38367 10.9625 7.64689 10.6529 6.87864 10.6529C6.78025 10.653 6.68287 10.6328 6.59244 10.5935C6.50201 10.5542 6.42042 10.4966 6.35265 10.4243C6.28488 10.3519 6.23236 10.2663 6.19829 10.1727C6.16421 10.079 6.1493 9.97933 6.15447 9.87965C6.16833 9.68788 6.25416 9.5088 6.39427 9.3793C6.53438 9.24979 6.7181 9.17973 6.90761 9.18354C7.72559 9.1879 8.5255 9.42804 9.21409 9.87598C9.26861 9.9124 9.33183 9.9332 9.39705 9.93616C9.46226 9.93912 9.52706 9.92414 9.58457 9.89281C9.64208 9.86147 9.69017 9.81494 9.72375 9.75814C9.75733 9.70135 9.77515 9.6364 9.77533 9.57017V1.42253C9.77565 1.3261 9.73858 1.23342 9.67213 1.16447C8.92858 0.418057 7.92467 -0.000425541 6.87864 3.24715e-07ZM7.60281 4.4081C7.60281 5.28492 7.25948 6.12584 6.64834 6.74585C6.0372 7.36585 5.20832 7.71417 4.34404 7.71417H3.98195C3.78989 7.71417 3.6057 7.63677 3.46989 7.49899C3.33408 7.36121 3.25778 7.17434 3.25778 6.97949C3.25778 6.78464 3.33408 6.59777 3.46989 6.45999C3.6057 6.32221 3.78989 6.24481 3.98195 6.24481H4.34404C4.58179 6.24481 4.81721 6.1973 5.03686 6.105C5.25651 6.01269 5.45609 5.8774 5.62421 5.70685C5.79232 5.53629 5.92568 5.33382 6.01666 5.11098C6.10764 4.88814 6.15447 4.6493 6.15447 4.4081V4.04076C6.15447 3.84591 6.23076 3.65904 6.36657 3.52126C6.50238 3.38348 6.68658 3.30607 6.87864 3.30607C7.0707 3.30607 7.2549 3.38348 7.39071 3.52126C7.52652 3.65904 7.60281 3.84591 7.60281 4.04076V4.4081Z" fill="white"/>
</svg>
