<svg width="18" height="22" viewBox="0 0 18 22" fill="none" xmlns="http://www.w3.org/2000/svg">
<path d="M17.844 8.53C17.7589 8.37032 17.6322 8.2367 17.4772 8.14337C17.3223 8.05003 17.1449 8.00048 16.964 8H9.96397V1C9.96233 0.786354 9.89229 0.578851 9.76414 0.407899C9.63598 0.236947 9.45645 0.111535 9.25183 0.0500389C9.04722 -0.0114568 8.82829 -0.00580239 8.62712 0.0661735C8.42596 0.138149 8.25313 0.272663 8.13398 0.450002L0.133975 12.45C0.0462065 12.602 0 12.7745 0 12.95C0 13.1255 0.0462065 13.298 0.133975 13.45C0.212228 13.6062 0.330032 13.7392 0.475655 13.8356C0.621278 13.9321 0.78964 13.9888 0.963975 14H7.96397V21C7.96562 21.2136 8.03566 21.4212 8.16381 21.5921C8.29197 21.7631 8.4715 21.8885 8.67612 21.95C8.88073 22.0115 9.09966 22.0058 9.30083 21.9338C9.50199 21.8619 9.67482 21.7273 9.79397 21.55L17.794 9.55C17.8932 9.40016 17.9502 9.22636 17.959 9.04687C17.9678 8.86737 17.9281 8.68882 17.844 8.53ZM9.96397 17.7V13C9.96397 12.7348 9.85862 12.4804 9.67108 12.2929C9.48355 12.1054 9.22919 12 8.96397 12H2.83397L7.96397 4.3V9C7.96397 9.26522 8.06933 9.51957 8.25687 9.70711C8.4444 9.89464 8.69876 10 8.96397 10H15.094L9.96397 17.7Z" fill="#CACACA"/>
</svg>
