<svg width="14" height="17" viewBox="0 0 14 17" fill="none" xmlns="http://www.w3.org/2000/svg">
<path d="M5.38193 11.8333H1.33731V16M8.61762 5.16667H12.6622V1M1 6.00284C1.45355 4.84638 2.21292 3.8442 3.19181 3.11019C4.1707 2.37618 5.33085 1.9396 6.53849 1.85042C7.74613 1.76125 8.95311 2.02284 10.0236 2.60551C11.0941 3.18819 11.9837 4.06878 12.5928 5.14677M13 10.9976C12.5464 12.154 11.7871 13.1562 10.8082 13.8902C9.8293 14.6242 8.67033 15.0602 7.46269 15.1494C6.25505 15.2386 5.04709 14.977 3.97658 14.3944C2.90608 13.8117 2.01586 12.9313 1.40683 11.8533" stroke="white" stroke-width="2" stroke-linecap="round" stroke-linejoin="round"/>
</svg>
