<svg width="35" height="35" viewBox="0 0 35 35" fill="none" xmlns="http://www.w3.org/2000/svg">
<path d="M31.6604 29.5896L25.2438 23.1875C26.8455 21.1505 27.7138 18.633 27.7083 16.0417C27.7083 13.7342 27.0241 11.4786 25.7422 9.56002C24.4602 7.64145 22.6381 6.1461 20.5063 5.26308C18.3745 4.38006 16.0287 4.14902 13.7656 4.59918C11.5025 5.04934 9.42371 6.16048 7.79209 7.79209C6.16048 9.42371 5.04934 11.5025 4.59918 13.7656C4.14902 16.0287 4.38006 18.3745 5.26308 20.5063C6.1461 22.6381 7.64145 24.4602 9.56002 25.7422C11.4786 27.0241 13.7342 27.7083 16.0417 27.7083C18.633 27.7138 21.1505 26.8455 23.1875 25.2438L29.5896 31.6604C29.8642 31.935 30.2366 32.0893 30.625 32.0893C31.0134 32.0893 31.3858 31.935 31.6604 31.6604C31.935 31.3858 32.0893 31.0134 32.0893 30.625C32.0893 30.2366 31.935 29.8642 31.6604 29.5896ZM9.85834 22.2979C8.40999 20.8816 7.49793 19.0067 7.27776 16.9929C7.05759 14.9792 7.54296 12.9514 8.65104 11.2556C9.75913 9.55983 11.4213 8.30103 13.3539 7.69401C15.2866 7.08698 17.37 7.16934 19.2487 7.92702C21.1274 8.68471 22.685 10.0708 23.6558 11.8488C24.6265 13.6267 24.9503 15.6865 24.5719 17.6765C24.1935 19.6666 23.1362 21.4637 21.5806 22.7613C20.025 24.0589 18.0674 24.7765 16.0417 24.7917C13.7218 24.7896 11.4977 23.8664 9.85834 22.225V22.2979Z" fill="white"/>
</svg>
