<svg width="23" height="23" viewBox="0 0 23 23" fill="none" xmlns="http://www.w3.org/2000/svg">
<path fill-rule="evenodd" clip-rule="evenodd" d="M5.45833 0.625H18.1458C20.8152 0.625 22.9792 2.78896 22.9792 5.45833V18.1458C22.9792 20.8152 20.8152 22.9792 18.1458 22.9792H5.45833C2.78896 22.9792 0.625 20.8152 0.625 18.1458V5.45833C0.625 2.78896 2.78896 0.625 5.45833 0.625ZM18.1458 21.1667C19.8142 21.1667 21.1667 19.8142 21.1667 18.1458V5.45833C21.1667 3.78997 19.8142 2.4375 18.1458 2.4375H5.45833C3.78997 2.4375 2.4375 3.78997 2.4375 5.45833V18.1458C2.4375 19.8142 3.78997 21.1667 5.45833 21.1667H18.1458Z" fill="black"/>
<path fill-rule="evenodd" clip-rule="evenodd" d="M17.3757 9.49422C17.5199 9.84027 17.8555 10.068 18.2303 10.0741C18.4781 10.0708 18.7167 10.1678 18.8919 10.343C19.0671 10.5182 19.164 10.7568 19.1608 11.0045V12.5995C19.164 12.8473 19.0671 13.0858 18.8919 13.261C18.7167 13.4362 18.4781 13.5332 18.2303 13.5299C17.8555 13.5361 17.5199 13.7637 17.3757 14.1098C17.2316 14.4558 17.3062 14.8545 17.5658 15.1249C17.7406 15.2995 17.8389 15.5364 17.8389 15.7835C17.8389 16.0305 17.7406 16.2675 17.5658 16.442L16.442 17.5658C16.2691 17.7437 16.0316 17.844 15.7835 17.844C15.5354 17.844 15.2978 17.7437 15.1249 17.5658C14.95 17.3961 14.7161 17.3008 14.4724 17.2999C14.2236 17.2967 13.9838 17.3933 13.8067 17.5681C13.6296 17.743 13.5299 17.9815 13.5299 18.2303C13.5332 18.4781 13.4362 18.7167 13.261 18.8919C13.0858 19.0671 12.8473 19.164 12.5995 19.1608H11.0045C10.7567 19.164 10.5182 19.0671 10.343 18.8919C10.1678 18.7167 10.0708 18.4781 10.0741 18.2303C10.0741 17.9815 9.97442 17.743 9.79731 17.5681C9.6202 17.3933 9.38043 17.2967 9.13158 17.2999C8.8879 17.3008 8.65404 17.3961 8.47908 17.5658C8.30617 17.7437 8.06863 17.844 7.82054 17.844C7.57245 17.844 7.33491 17.7437 7.162 17.5658L6.03825 16.442C5.86337 16.2675 5.7651 16.0305 5.7651 15.7835C5.7651 15.5364 5.86337 15.2995 6.03825 15.1249C6.29784 14.8545 6.37245 14.4558 6.22826 14.1098C6.08407 13.7637 5.74851 13.5361 5.37367 13.5299C5.12591 13.5332 4.88735 13.4362 4.71214 13.261C4.53694 13.0858 4.43997 12.8473 4.44325 12.5995V11.0045C4.43997 10.7568 4.53694 10.5182 4.71214 10.343C4.88735 10.1678 5.12591 10.0708 5.37367 10.0741C5.74851 10.068 6.08407 9.84027 6.22826 9.49422C6.37245 9.14816 6.29784 8.74956 6.03825 8.47909C5.86337 8.30455 5.7651 8.06762 5.7651 7.82055C5.7651 7.57347 5.86337 7.33654 6.03825 7.16201L7.162 6.03826C7.33491 5.86035 7.57245 5.75997 7.82054 5.75997C8.06863 5.75997 8.30617 5.86035 8.47908 6.03826C8.65404 6.20789 8.8879 6.30316 9.13158 6.30409C9.38043 6.30732 9.6202 6.21072 9.79731 6.03589C9.97442 5.86105 10.0741 5.62254 10.0741 5.37367C10.0708 5.12592 10.1678 4.88735 10.343 4.71215C10.5182 4.53695 10.7567 4.43997 11.0045 4.44326H12.5995C12.8473 4.43997 13.0858 4.53695 13.261 4.71215C13.4362 4.88735 13.5332 5.12592 13.5299 5.37367C13.5299 5.62254 13.6296 5.86105 13.8067 6.03589C13.9838 6.21072 14.2236 6.30732 14.4724 6.30409C14.7161 6.30316 14.95 6.20789 15.1249 6.03826C15.2978 5.86035 15.5354 5.75997 15.7835 5.75997C16.0316 5.75997 16.2691 5.86035 16.442 6.03826L17.5658 7.16201C17.7406 7.33654 17.8389 7.57347 17.8389 7.82055C17.8389 8.06762 17.7406 8.30455 17.5658 8.47909C17.3062 8.74956 17.2316 9.14816 17.3757 9.49422ZM15.6928 13.4212C15.9958 12.6884 16.5986 12.1208 17.3483 11.8624V11.802C16.5986 11.5436 15.9958 10.976 15.6928 10.2433C15.3895 9.51495 15.4159 8.69103 15.7653 7.98367L15.6808 7.89909C15.3046 8.08315 14.8912 8.17824 14.4724 8.17701C13.3003 8.14442 12.2772 7.37349 11.9228 6.25576H11.802C11.4405 7.39428 10.3865 8.17014 9.192 8.17701C8.77324 8.17824 8.35981 8.08315 7.98367 7.89909L7.89909 7.98367C8.24853 8.69103 8.27496 9.51495 7.97159 10.2433C7.66861 10.976 7.06583 11.5436 6.31617 11.802V11.8624C7.06583 12.1208 7.66861 12.6884 7.97159 13.4212C8.27496 14.1495 8.24853 14.9734 7.89909 15.6808L7.98367 15.7653C8.35981 15.5813 8.77324 15.4862 9.192 15.4874C10.3704 15.4857 11.4195 16.2336 11.802 17.3483H11.8624C12.1183 16.5999 12.6835 15.9976 13.4142 15.6947C14.1448 15.3918 14.9704 15.4175 15.6808 15.7653L15.7653 15.6808C15.4159 14.9734 15.3895 14.1495 15.6928 13.4212Z" fill="black"/>
<path fill-rule="evenodd" clip-rule="evenodd" d="M9.20417 11.8021C9.20417 10.3673 10.3673 9.20417 11.8021 9.20417C13.2369 9.20417 14.4 10.3673 14.4 11.8021C14.4 13.2369 13.2369 14.4 11.8021 14.4C10.3673 14.4 9.20417 13.2369 9.20417 11.8021ZM11.0167 11.8021C11.0167 12.2359 11.3683 12.5875 11.8021 12.5875C12.0104 12.5875 12.2102 12.5048 12.3575 12.3575C12.5048 12.2102 12.5875 12.0104 12.5875 11.8021C12.5875 11.3683 12.2359 11.0167 11.8021 11.0167C11.3683 11.0167 11.0167 11.3683 11.0167 11.8021Z" fill="black"/>
</svg>
