<svg width="15" height="15" viewBox="0 0 15 15" fill="none" xmlns="http://www.w3.org/2000/svg">
<path d="M5.3335 1.86667H3.7735C2.80274 1.86667 2.317 1.86667 1.94622 2.05559C1.62008 2.22177 1.3551 2.48674 1.18892 2.81289C1 3.18367 1 3.66941 1 4.64017V11.2268C1 12.1976 1 12.6827 1.18892 13.0535C1.3551 13.3796 1.62008 13.6451 1.94622 13.8113C2.31664 14 2.80179 14 3.77065 14H10.3627C11.3315 14 11.816 14 12.1864 13.8113C12.5126 13.6451 12.7784 13.3794 12.9446 13.0532C13.1333 12.6828 13.1333 12.1982 13.1333 11.2293V9.66667M14 5.33333V1M14 1H9.66667M14 1L7.93333 7.06667" stroke="white" stroke-width="2" stroke-linecap="round" stroke-linejoin="round"/>
</svg>
