<svg width="20" height="21" viewBox="0 0 20 21" fill="none" xmlns="http://www.w3.org/2000/svg">
<path fill-rule="evenodd" clip-rule="evenodd" d="M9.52386 6.71429C12.6798 6.71429 15.2381 5.4351 15.2381 3.85714C15.2381 2.27919 12.6798 1 9.52386 1C6.36794 1 3.80957 2.27919 3.80957 3.85714C3.80957 5.4351 6.36794 6.71429 9.52386 6.71429Z" stroke="white" stroke-width="2" stroke-linecap="round" stroke-linejoin="round"/>
<path fill-rule="evenodd" clip-rule="evenodd" d="M9.61213 5.87274C9.61213 5.87274 7.17806 5.87274 5.12159 5C2.85586 7.86381 1.28219 11.6069 0.253487 14.7527C-0.787562 17.9361 1.5166 21 4.63292 21H14.5597C17.6838 21 19.9909 17.922 18.9445 14.7316C17.911 11.5803 16.3385 7.83842 14.0944 5C12.0406 5.87274 9.61213 5.87274 9.61213 5.87274ZM6.49294 10.6929C6.88347 10.3024 7.51663 10.3024 7.90716 10.6929L9.60005 12.3858L11.2929 10.6929C11.6835 10.3024 12.3166 10.3024 12.7072 10.6929C13.0977 11.0834 13.0977 11.7166 12.7072 12.1071L12.0142 12.8001C12.5599 12.8077 13.0001 13.2524 13.0001 13.8C13.0001 14.3523 12.5523 14.8 12.0001 14.8H10.6036V15.2H12.0001C12.5523 15.2 13.0001 15.6477 13.0001 16.2C13.0001 16.7523 12.5523 17.2 12.0001 17.2H10.6036V17.8C10.6036 18.3523 10.1559 18.8 9.60357 18.8C9.05128 18.8 8.60357 18.3523 8.60357 17.8V17.2H7.20005C6.64777 17.2 6.20005 16.7523 6.20005 16.2C6.20005 15.6477 6.64777 15.2 7.20005 15.2H8.60357V14.8H7.20005C6.64777 14.8 6.20005 14.3523 6.20005 13.8C6.20005 13.2524 6.64016 12.8077 7.18594 12.8001L6.49294 12.1071C6.10242 11.7166 6.10242 11.0834 6.49294 10.6929Z" fill="white"/>
</svg>
