<svg width="23" height="19" viewBox="0 0 23 19" fill="none" xmlns="http://www.w3.org/2000/svg">
<path d="M20.6248 8.28849C20.6745 8.69047 20.6994 9.0953 20.6996 9.50054C20.701 11.2753 20.2204 13.015 19.3124 14.522C18.4044 16.029 17.1054 17.243 15.5628 18.0261C14.0202 18.8092 12.2958 19.13 10.5855 18.9522C8.87513 18.7744 7.24733 18.1051 5.8869 17.0202C8.30089 16.4107 11.1404 15.1472 13.7872 13.577C16.6085 11.9039 18.9899 10.0408 20.6248 8.28849ZM22.7226 2.83971C21.9894 1.53466 20.0546 1.2408 17.1164 1.98287C15.7561 0.896912 14.1281 0.226609 12.4174 0.0481057C10.7066 -0.130398 8.98163 0.190054 7.43841 0.973057C5.8952 1.75606 4.59562 2.97023 3.68729 4.47762C2.77896 5.98502 2.29831 7.72522 2.29993 9.50054C2.30005 9.90775 2.32502 10.3146 2.37468 10.7185C-0.278889 13.5572 -0.240556 15.2392 0.277891 16.1614C0.766631 17.036 1.78628 17.416 3.12792 17.416C4.05942 17.3961 4.98543 17.2632 5.8869 17.0202C5.3926 16.6257 4.93799 16.1808 4.52993 15.6924C2.873 15.9773 1.84665 15.7913 1.6042 15.3669C1.46428 15.1185 1.54191 14.6505 1.81694 14.0806C2.08889 13.5469 2.41945 13.0472 2.80209 12.5915C2.80254 12.5886 2.80254 12.5856 2.80209 12.5826V12.5905C3.18241 13.7267 3.76771 14.7782 4.52705 15.6894C6.53376 15.3441 9.46141 14.3131 13.0206 12.2017C15.7163 10.6077 18.5913 8.37952 20.2003 6.4155C19.8214 5.27779 19.236 4.22505 18.4753 3.31365L18.4629 3.29881C18.4629 3.30375 18.4715 3.30771 18.4753 3.31365C19.8371 3.08113 21.0982 3.09894 21.3982 3.63422C21.4863 3.78956 21.494 4.02208 21.4125 4.32682C21.2506 4.95115 20.8193 5.66552 20.2022 6.41748C20.4051 7.02525 20.5474 7.65284 20.6267 8.29047C21.8246 7.00421 22.6219 5.78227 22.8931 4.73644C23.079 4.0102 23.0225 3.37301 22.7226 2.83971Z" fill="white"/>
</svg>
