<svg width="18" height="17" viewBox="0 0 18 17" fill="none" xmlns="http://www.w3.org/2000/svg">
<path d="M2.11946 7.49876C1.88722 7.28761 2.01338 6.90591 2.3275 6.86929L6.77847 6.35027C6.9065 6.33535 7.0177 6.25631 7.0717 6.14122L8.94906 2.13986C9.08155 1.85747 9.4899 1.85741 9.62239 2.13981L11.4998 6.14113C11.5538 6.25622 11.6642 6.33547 11.7923 6.3504L16.2435 6.86929C16.5576 6.90591 16.6834 7.28773 16.4512 7.49887L13.1608 10.4909C13.0662 10.5769 13.024 10.705 13.0491 10.8293L13.9224 15.1513C13.984 15.4563 13.6538 15.6927 13.3778 15.5408L9.46675 13.3879C9.35425 13.326 9.21758 13.3263 9.10509 13.3882L5.19361 15.5402C4.91759 15.6921 4.58679 15.4563 4.64843 15.1513L5.52182 10.8296C5.54695 10.7053 5.50492 10.5769 5.41026 10.4909L2.11946 7.49876Z" stroke="white" stroke-width="2" stroke-linecap="round" stroke-linejoin="round"/>
</svg>
