<svg width="32" height="24" viewBox="0 0 32 24" fill="none" xmlns="http://www.w3.org/2000/svg">
<path d="M7.61421 6.61538H24.387M7.61421 6.61538C6.74443 6.61538 6.30846 6.61538 5.97624 6.78307C5.68402 6.93056 5.44661 7.16575 5.29772 7.45523C5.12844 7.78432 5.12844 8.21545 5.12844 9.07707V17.0771C5.12844 18.8003 5.12844 19.6621 5.46699 20.3203C5.76478 20.8992 6.2396 21.37 6.82404 21.665C7.48782 22 8.35719 22 10.0934 22H21.9055C23.6416 22 24.5097 22 25.1735 21.665C25.758 21.37 26.2349 20.8992 26.5327 20.3202C26.8709 19.6626 26.8709 18.8025 26.8709 17.0826V9.06311C26.8709 8.21079 26.8709 7.78254 26.7026 7.45523C26.5537 7.16575 26.3152 6.93056 26.023 6.78307C25.6907 6.61538 25.2568 6.61538 24.387 6.61538M7.61421 6.61538H5.0901C3.77142 6.61538 3.11248 6.61538 2.73823 6.38702C2.23879 6.08226 1.95562 5.5243 2.00569 4.94534C2.04325 4.51113 2.43575 3.98598 3.22203 2.93445C3.44945 2.63032 3.56319 2.47821 3.70239 2.36208C3.888 2.20723 4.10826 2.09726 4.34434 2.04168C4.52141 2 4.71146 2 5.09356 2H26.905C27.2871 2 27.4776 2 27.6547 2.04168C27.8908 2.09726 28.111 2.20723 28.2966 2.36208C28.4358 2.47821 28.5499 2.62961 28.7773 2.93374C29.5636 3.98526 29.9568 4.51104 29.9943 4.94526C30.0444 5.52421 29.7602 6.08226 29.2608 6.38702C28.8865 6.61539 28.226 6.61538 26.9073 6.61538H24.387M12.8936 14.3077H19.1058" stroke="#CACACA" stroke-width="3" stroke-linecap="round" stroke-linejoin="round"/>
</svg>
