<svg stroke="currentColor" fill="currentColor" stroke-width="0" viewBox="0 0 32 32" height="25" width="25" xmlns="http://www.w3.org/2000/svg"><g><path fill="none" d="M0 0h24v24H0z"></path><path fill-rule="nonzero" d="M16.0152 10.0909C16.0152 10.0909 12.9726 10.0909 10.402 9C7.56982 12.5798 5.60274 17.2587 4.31686 21.1908C3.01555 25.1701 5.89575 29 9.79115 29H22.1996C26.1048 29 28.9886 25.1525 27.6807 21.1646C26.3888 17.2253 24.4231 12.548 21.618 9C19.0508 10.0909 16.0152 10.0909 16.0152 10.0909ZM12.2929 16.2929C12.6834 15.9024 13.3166 15.9024 13.7071 16.2929L16 18.5858L18.2929 16.2929C18.6834 15.9024 19.3166 15.9024 19.7071 16.2929C20.0976 16.6834 20.0976 17.3166 19.7071 17.7071L18.4142 19H19C19.5523 19 20 19.4477 20 20C20 20.5523 19.5523 21 19 21H17.0044V22H19C19.5523 22 20 22.4477 20 23C20 23.5523 19.5523 24 19 24H17.0044V25C17.0044 25.5523 16.5567 26 16.0044 26C15.4521 26 15.0044 25.5523 15.0044 25V24H13C12.4477 24 12 23.5523 12 23C12 22.4477 12.4477 22 13 22H15.0044V21H13C12.4477 21 12 20.5523 12 20C12 19.4477 12.4477 19 13 19H13.5858L12.2929 17.7071C11.9024 17.3166 11.9024 16.6834 12.2929 16.2929Z"></path></g></svg>